<?xml version="1.0" standalone="no"?>
<!DOCTYPE svg PUBLIC "-//W3C//DTD SVG 20010904//EN"
 "http://www.w3.org/TR/2001/REC-SVG-20010904/DTD/svg10.dtd">
<svg version="1.0" xmlns="http://www.w3.org/2000/svg"
 width="260.000000pt" height="260.000000pt" viewBox="0 0 260.000000 260.000000"
 preserveAspectRatio="xMidYMid meet">
<metadata>
Created by potrace 1.11, written by Peter Selinger 2001-2013
</metadata>
<g transform="translate(0.000000,260.000000) scale(0.100000,-0.100000)"
fill="#000000" stroke="none">
<path d="M789 2589 c0 -8 -2 -43 -3 -79 -4 -96 -16 -216 -29 -290 l-12 -65
-110 1 c-125 1 -215 9 -329 30 -43 9 -80 13 -82 11 -2 -2 1 -28 6 -58 6 -30
13 -66 15 -82 18 -98 65 -236 119 -347 22 -47 42 -88 44 -92 2 -4 -22 -18 -53
-33 -86 -39 -355 -218 -355 -236 0 -4 64 -51 142 -104 157 -108 208 -151 208
-174 0 -19 -115 -113 -216 -178 -59 -37 -72 -49 -62 -58 14 -13 192 -119 241
-145 16 -8 39 -24 52 -36 l23 -21 -19 -89 c-10 -49 -22 -117 -25 -150 l-7 -62
99 23 c55 12 142 36 194 53 52 17 94 30 95 29 0 -1 14 -30 30 -65 74 -159 185
-271 324 -327 83 -34 113 -39 226 -39 78 0 115 5 167 22 156 54 290 180 365
345 l26 57 41 -24 c23 -13 67 -33 99 -45 63 -23 178 -35 188 -20 3 6 0 32 -7
59 -13 50 -20 87 -31 152 -5 34 -3 38 38 64 147 95 271 206 315 280 31 52 27
70 -18 79 -46 9 -198 83 -198 96 0 6 16 27 35 47 55 57 149 199 198 298 50
101 71 153 66 158 -2 2 -69 6 -149 9 -80 3 -154 8 -165 11 -11 2 -39 9 -63 14
-24 6 -46 13 -49 15 -18 19 114 290 196 404 33 46 56 85 52 88 -5 2 -24 7 -42
10 -19 2 -59 8 -89 13 -89 13 -274 5 -382 -16 -51 -10 -52 -10 -62 50 -20 115
-32 238 -35 352 -1 17 -7 18 -70 14 -53 -4 -87 -14 -152 -46 -77 -37 -185
-104 -247 -153 -14 -10 -28 -19 -33 -19 -4 0 -31 21 -59 47 -86 78 -201 161
-269 193 -73 35 -180 52 -182 29z"/>
</g>
</svg>
